<?xml version="1.0" encoding="UTF-8"?>
<svg viewBox="0 0 235 85" version="1.1" xmlns="http://www.w3.org/2000/svg" xmlns:xlink="http://www.w3.org/1999/xlink">
    <title>AI|ffinity Wordmark Dark</title>
    <g>
        <g id="AI" transform="translate(7.598014, 10.126582)" fill="#072f4e" fill-rule="nonzero">
            <path d="M29.9864493,36.7088608 L34.625237,36.7088608 L20.7088738,0 L13.9163632,0 L0,36.7088608 L4.58356407,36.7088608 L8.17310219,27.3246407 L26.3969111,27.3246407 L29.9864493,36.7088608 Z M9.55369378,23.626154 L17.2850067,3.31207766 L25.0163195,23.626154 L9.55369378,23.626154 Z" id="A"></path>
            <polygon id="I" points="59.5177794 3.69848672 59.5177794 0 39.4163659 0 39.4163659 3.69848672 47.2029024 3.69848672 47.2029024 33.010374 39.4163659 33.010374 39.4163659 36.7088608 59.5177794 36.7088608 59.5177794 33.010374 51.7312428 33.010374 51.7312428 3.69848672"></polygon>
        </g>
        <rect id="Rectangle" stroke="#072f4e" fill="transparent" x="0" y="0" width="74.7138081" height="56.9620253" rx="5.42349848"></rect>
        <g id="ffinity" transform="translate(82.311823, 7.791220)" fill="#072f4e" fill-rule="nonzero">
            <path d="M28.6394489,0 C23.2904468,0 21.5074461,1.89367089 21.5074461,5.62531646 L21.5074461,11.1392405 L8.803566,11.1392405 L8.803566,3.39746835 L17.8300071,3.39746835 L17.8300071,0 L11.7566609,0 C6.4076588,0 4.68037686,1.89367089 4.68037686,5.62531646 L4.68037686,10.9721519 L0,12.1417722 L0,14.6481013 L4.68037686,14.6481013 L4.68037686,38.9873418 L9.13787863,38.9873418 L9.13787863,14.6481013 L21.5074461,14.6481013 L21.5074461,38.9873418 L25.9649478,38.9873418 L25.9649478,14.6481013 L33.9327322,14.6481013 L33.9327322,11.1392405 L25.686354,11.1392405 L25.686354,3.39746835 L42.792017,3.39746835 L42.792017,0 L28.6394489,0 Z M38.3345152,38.9873418 L42.792017,38.9873418 L42.792017,11.1392405 L38.3345152,11.1392405 L38.3345152,38.9873418 Z" id="ffi"></path>
            <path d="M67.1917739,10.2481013 C61.6756154,10.2481013 58.2210516,13.3670886 56.4937696,18.435443 L56.4937696,11.1392405 L52.0362679,11.1392405 L52.0362679,38.9873418 L56.4937696,38.9873418 L56.4937696,28.3493671 C56.4937696,18.7696203 59.7811772,13.9797468 65.9659609,13.9797468 C70.0334313,13.9797468 72.6522136,15.7620253 72.6522136,21.721519 L72.6522136,38.9873418 L77.1097153,38.9873418 L77.1097153,21.2202532 C77.1097153,14.035443 74.1566204,10.2481013 67.1917739,10.2481013 Z" id="n"></path>
            <path d="M86.1868098,6.5721519 L91.9258434,6.5721519 L91.9258434,1.94936709 L86.1868098,1.94936709 L86.1868098,6.5721519 Z M86.7997163,38.9873418 L91.2572181,38.9873418 L91.2572181,11.1392405 L86.7997163,11.1392405 L86.7997163,38.9873418 Z" id="i"></path>
            <path d="M110.085098,38.9873418 L116.659913,38.9873418 L116.659913,35.3670886 L107.800628,35.3670886 L107.800628,14.6481013 L116.994226,14.6481013 L116.994226,11.1392405 L107.800628,11.1392405 L107.800628,4.95696203 L105.404721,4.95696203 L103.733158,10.7493671 L98.049843,12.1417722 L98.049843,14.6481013 L103.343126,14.6481013 L103.343126,32.4708861 C103.343126,36.9265823 104.736096,38.9873418 110.085098,38.9873418 Z" id="t"></path>
            <path d="M146.130078,11.1392405 L137.493668,32.5822785 L136.657887,35.2556962 L135.710668,32.5822785 L127.185695,11.1392405 L122.505319,11.1392405 L133.537635,38.9873418 L135.097761,38.9873418 L132.033229,46.5063291 L124.288319,46.5063291 L124.288319,50.1265823 L129.581603,50.1265823 C134.596292,50.1265823 135.710668,48.0658228 137.43795,43.6101266 L150.531861,11.1392405 L146.130078,11.1392405 Z" id="y"></path>
        </g>
        <g id="Molecular-design" transform="translate(0.022869, 73.000541)" fill="#072f4e" fill-rule="nonzero">
            <path d="M8.77636335,10.3861984 L10.3904072,10.3861984 L10.3904072,0.302510634 L8.51696345,0.302510634 L5.20240915,5.02743862 L1.87344374,0.302510634 C1.22494398,0.302510634 0.63408865,0.302510634 0,0.302510634 L0,10.3861984 L1.61404384,10.3861984 L1.61404384,2.65056936 L5.00065367,7.41871316 L5.3465202,7.41871316 L8.77636335,2.65056936 L8.77636335,10.3861984 Z" id="M"></path>
            <path d="M22.7591237,0.100836878 C19.7183804,0.100836878 17.5711256,2.31924819 17.5711256,5.38757033 C17.5711256,8.03813969 19.2284028,10.5878722 22.7303014,10.5878722 C26.2322001,10.5878722 27.8894773,8.09576076 27.8894773,5.37316506 C27.8894773,2.65056936 26.2033779,0.115242146 22.7591237,0.100836878 Z M19.1707583,5.4019756 C19.1707583,3.19796955 20.4245245,1.57017424 22.7591237,1.57017424 C25.2234227,1.61339005 26.2898445,3.54369599 26.2898445,5.4019756 C26.2898445,7.33228155 25.2378338,9.10412954 22.7303014,9.10412954 C20.2371802,9.10412954 19.1995805,7.18822886 19.1707583,5.4019756 Z" id="O"></path>
            <polygon id="L" points="35.0701957 0.288105365 35.0701957 10.3717931 42.0019375 10.3717931 42.0019375 8.87364525 36.6842395 8.87364525 36.6842395 0.288105365"></polygon>
            <path d="M56.2440977,8.78721364 L50.4075999,8.78721364 L50.4075999,6.07902321 L55.9702867,6.07902321 L55.9702867,4.58087531 L50.4075999,4.58087531 L50.4075999,1.85827961 L56.2008644,1.85827961 L56.2008644,0.288105365 L48.7935561,0.288105365 C48.7935561,3.64453287 48.7935561,7.01536564 48.7935561,10.3717931 L56.2440977,10.3717931 L56.2440977,8.78721364 Z" id="E"></path>
            <path d="M70.8609467,7.96611335 C70.1548025,8.67197149 69.1172029,9.06091374 68.180481,9.06091374 C65.5720709,9.06091374 64.4768268,7.23144467 64.4624157,5.38757033 C64.4480046,3.52929072 65.6153042,1.64220058 68.180481,1.64220058 C69.1172029,1.64220058 70.0683358,1.97352175 70.7888911,2.6793799 L71.8697241,1.64220058 C70.8465356,0.619426535 69.5351249,0.115242146 68.180481,0.115242146 C64.5777046,0.115242146 62.8483719,2.75140624 62.8626937,5.4019756 C62.8771941,8.05254496 64.5200602,10.5734669 68.180481,10.5734669 C69.5927694,10.5734669 70.9330022,10.0980931 71.9706018,9.07531901 L70.8609467,7.96611335 Z" id="C"></path>
            <path d="M85.7083733,0.302510634 L85.7083733,6.19426535 C85.7083733,8.11016603 84.5266626,9.16175062 82.9126188,9.07531901 C81.4138638,9.01769793 80.347442,8.02373442 80.347442,6.19426535 L80.347442,0.302510634 L78.7478093,0.302510634 L78.7478093,6.19426535 C78.7478093,9.06091374 80.6644863,10.5014406 82.9126188,10.5590616 C85.3480957,10.6454932 87.308006,9.16175062 87.308006,6.19426535 L87.308006,0.302510634 L85.7083733,0.302510634 Z" id="U"></path>
            <polygon id="L" points="94.978702 0.288105365 94.978702 10.3717931 101.910444 10.3717931 101.910444 8.87364525 96.5927459 8.87364525 96.5927459 0.288105365"></polygon>
            <path d="M116.656993,10.3717931 L118.371914,10.3717931 L113.846827,0.288105365 L112.088672,0.288105365 L107.563585,10.3717931 L109.278507,10.3717931 L110.22964,8.25421871 L115.691449,8.25421871 L116.656993,10.3717931 Z M115.100593,6.78488135 L110.834906,6.78488135 L112.96775,1.98792702 L115.100593,6.78488135 Z" id="A"></path>
            <path d="M133.565208,10.0836878 L130.553286,6.72726028 C132.542019,6.43915491 133.291396,5.02743862 133.291396,3.5869118 C133.291396,1.88709014 132.066453,0.288105365 129.731853,0.288105365 C128.161043,0.288105365 126.604643,0.273700097 125.033833,0.273700097 L125.033833,10.3717931 L126.647877,10.3717931 L126.647877,6.88571823 L128.78072,6.88571823 L131.850286,10.3717931 L133.738141,10.3717931 L133.565208,10.0836878 Z M129.731853,1.75744273 C131.057675,1.75744273 131.64853,2.70819043 131.64853,3.61572233 C131.64853,4.56647004 131.057675,5.41638087 129.717442,5.41638087 L126.647877,5.41638087 L126.647877,1.75744273 L129.731853,1.75744273 Z" id="R"></path>
            <path d="M149.540688,0.288105365 L149.540688,10.3717931 C150.751221,10.3717931 152.149098,10.3717931 153.359631,10.3717931 C156.890352,10.3717931 158.475574,7.79325013 158.417929,5.24351765 C158.374696,2.75140624 156.803885,0.288105365 153.359631,0.288105365 L149.540688,0.288105365 Z M151.140321,1.82946907 L153.359631,1.82946907 C155.737464,1.82946907 156.775063,3.52929072 156.818297,5.22911238 C156.86153,7.00096038 155.82393,8.81602418 153.359631,8.81602418 L151.140321,8.81602418 L151.140321,1.82946907 Z" id="D"></path>
            <path d="M173.0636,8.78721364 L167.227103,8.78721364 L167.227103,6.07902321 L172.789789,6.07902321 L172.789789,4.58087531 L167.227103,4.58087531 L167.227103,1.85827961 L173.020367,1.85827961 L173.020367,0.288105365 L165.613059,0.288105365 C165.613059,3.64453287 165.613059,7.01536564 165.613059,10.3717931 L173.0636,10.3717931 L173.0636,8.78721364 Z" id="E"></path>
            <path d="M187.651627,1.69982166 C186.801372,0.345726438 185.34585,0 183.890329,0 C182.074529,0 179.984919,0.806695023 179.99933,2.89545892 C179.99933,5.05624916 
            181.901596,5.56043355 183.90474,5.83413365 C185.317028,6.02140213 186.484328,6.39593911 186.484328,7.4907395 C186.484328,8.7584031 185.144095,9.16175062 183.933562,9.16175062 C182.766262,9.16175062 181.512496,8.72959257 180.791941,7.50514477 L179.581408,8.31183979 C180.503719,10.0116614 181.988063,10.6022774 183.919151,10.6022774 C186.023172,10.6022774 188.08396,9.75236661 188.098371,7.4907395 C188.098371,5.22911238 186.12405,4.65290165 184.048851,4.36479628 C182.723029,4.1775278 181.598963,3.9038277 181.598963,2.92426946 C181.598963,1.95911648 182.578918,1.39731102 183.933562,1.39731102 C184.985573,1.41171629 185.951117,1.82946907 186.426683,2.52092195 L187.651627,1.69982166 Z" id="S"></path>
            <polygon id="I" points="196.777845 10.3717931 196.777845 0.288105365 195.178212 0.288105365 195.178212 10.3717931"></polygon>
            <path d="M212.994327,1.57017424 C211.956727,0.547400194 210.602083,0.0432158048 209.26185,0.0432158048 C205.817596,0.0432158048 203.958563,2.52092195 203.958563,5.43078614 C203.958563,8.11016603 205.558196,10.5734669 209.26185,10.5734669 C210.962361,10.5734669 212.216127,9.92522983 213.224904,8.81602418 L213.224904,4.68171219 L208.915984,4.68171219 L208.915984,6.12223901 L211.726149,6.12223901 L211.726149,8.16778711 C210.919127,8.84483471 210.126516,9.06091374 209.26185,9.06091374 C206.639029,9.06091374 205.543785,7.27466047 205.543785,5.43078614 C205.529374,3.29880643 206.898429,1.52695844 209.26185,1.52695844 C210.198572,1.52695844 211.264994,1.90149541 211.985549,2.60735356 L212.994327,1.57017424 Z" id="G"></path>
            <polygon id="N" points="221.789089 0.288105365 220.549734 0.288105365 220.549734 10.3717931 222.178189 10.3717931 222.178189 3.25559063 227.899398 10.3717931 229.124342 10.3717931 229.124342 0.288105365 227.510298 0.288105365 227.510298 7.46192896"></polygon>
        </g>
    </g>
</svg>